<?xml version="1.0" encoding="UTF-8" standalone="no"?>
<!-- Created with Inkscape (http://www.inkscape.org/) -->

<svg
   width="1844.0594mm"
   height="3377.6677mm"
   viewBox="0 0 1844.0594 3377.6677"
   version="1.1"
   id="svg1"
   xmlns:inkscape="http://www.inkscape.org/namespaces/inkscape"
   xmlns:sodipodi="http://sodipodi.sourceforge.net/DTD/sodipodi-0.dtd"
   xmlns="http://www.w3.org/2000/svg"
   xmlns:svg="http://www.w3.org/2000/svg">
  <sodipodi:namedview
     id="namedview1"
     pagecolor="#ffffff"
     bordercolor="#000000"
     borderopacity="0.25"
     inkscape:showpageshadow="2"
     inkscape:pageopacity="0.0"
     inkscape:pagecheckerboard="0"
     inkscape:deskcolor="#d1d1d1"
     inkscape:document-units="mm" />
  <defs
     id="defs1" />
  <g
     inkscape:label="Layer 1"
     inkscape:groupmode="layer"
     id="layer1"
     transform="translate(-777.62722,-44.048158)">
    <path
       id="path1"
       style="fill:none;stroke:#000000;stroke-width:100;stroke-dasharray:none;stroke-opacity:1"
       d="M 1699.6572,94.048164 A 872.02966,872.02966 0 0 0 828.17912,958.36027 h -0.55191 v 7.71735 1533.60818 15.3149 h 1.09554 a 872.02966,872.02966 0 0 0 870.93445,856.7151 872.02966,872.02966 0 0 0 870.9339,-856.7151 h 1.0956 v -15.3149 -1533.60818 -7.71735 h -0.1897 A 872.02966,872.02966 0 0 0 1699.6572,94.048164 Z" />
    <g
       id="g3"
       transform="translate(-1.8443881,764.32559)">
      <path
         id="path2"
         style="fill:none;stroke:#000000;stroke-width:100;stroke-dasharray:none;stroke-opacity:1"
         d="m 1699.6572,1144.833 a 589.04315,589.04315 0 0 0 -516.2548,308.5285 v 561.0298 a 589.04315,589.04315 0 0 0 516.2548,308.5285 589.04315,589.04315 0 0 0 516.2543,-308.528 V 1450.4924 A 589.04315,589.04315 0 0 0 1699.6572,1144.833 Z" />
      <ellipse
         style="fill:#000000;fill-opacity:1;stroke:#000000;stroke-width:0;stroke-dasharray:none;stroke-opacity:1"
         id="path3"
         cx="1448.1179"
         cy="1733.8765"
         rx="50.007576"
         ry="52.949203" />
      <ellipse
         style="fill:#000000;fill-opacity:1;stroke:#000000;stroke-width:0;stroke-dasharray:none;stroke-opacity:1"
         id="path3-3"
         cx="1937.9655"
         cy="1733.8765"
         rx="50.007576"
         ry="52.949203" />
      <rect
         style="fill:#000000;fill-opacity:1;stroke:#000000;stroke-width:0;stroke-dasharray:none;stroke-opacity:1"
         id="rect3"
         width="180.90977"
         height="101.48597"
         x="1049.528"
         y="1683.1335" />
      <rect
         style="fill:#000000;fill-opacity:1;stroke:#000000;stroke-width:0;stroke-dasharray:none;stroke-opacity:1"
         id="rect3-3"
         width="180.90977"
         height="101.48597"
         x="2172.5649"
         y="1683.1335" />
    </g>
  </g>
</svg>
