<svg id="svg" xmlns="http://www.w3.org/2000/svg" xmlns:xlink="http://www.w3.org/1999/xlink" width="400" height="198.70967741935482" viewBox="0, 0, 400,198.70967741935482" version="1.1"><g id="svgg"><path id="path0" d="M77.629 19.521 C -11.858 43.977,-5.747 169.576,85.861 188.702 C 93.283 190.251,100.458 192.556,101.806 193.824 C 105.128 196.947,118.020 196.752,120.000 193.548 C 122.175 190.028,280.405 190.028,282.581 193.548 C 284.535 196.711,301.935 197.012,301.935 193.884 C 301.935 192.649,309.165 190.217,318.001 188.479 C 404.423 171.476,418.079 60.947,338.374 23.575 L 323.871 16.774 207.742 16.237 C 111.956 15.794,89.163 16.369,77.629 19.521 M91.110 23.249 C 6.724 35.583,-5.128 150.797,75.108 178.807 C 97.857 186.748,321.898 184.367,337.536 176.017 C 409.444 137.623,394.252 37.872,314.279 23.305 L 300.645 20.822 315.155 21.803 C 394.212 27.151,413.317 141.858,341.059 177.342 L 326.452 184.516 201.290 184.516 L 76.129 184.516 62.948 177.562 C -10.802 138.653,12.928 19.845,94.194 21.126 C 103.832 21.278,103.627 21.419,91.110 23.249 M336.938 33.993 C 395.211 64.747,394.619 143.344,335.898 172.181 L 321.290 179.355 201.290 179.355 L 81.290 179.355 68.496 173.012 C 5.339 141.702,10.708 52.560,77.106 30.044 C 87.346 26.572,105.638 26.078,206.452 26.548 L 323.871 27.097 336.938 33.993 M118.065 74.037 C 115.581 74.686,113.548 76.419,113.548 77.888 C 113.548 79.426,116.200 79.894,119.795 78.992 C 136.741 74.738,138.956 87.205,123.871 101.935 C 109.686 115.787,110.360 118.710,127.742 118.710 C 135.548 118.710,141.935 117.548,141.935 116.129 C 141.935 114.710,137.142 113.548,131.284 113.548 L 120.633 113.548 131.284 101.993 C 148.242 83.596,140.901 68.069,118.065 74.037 M156.774 74.037 C 154.290 74.686,152.258 76.419,152.258 77.888 C 152.258 79.426,154.910 79.894,158.505 78.992 C 166.942 76.874,172.903 79.523,172.903 85.388 C 172.903 88.394,170.462 90.837,166.452 91.843 C 157.902 93.989,158.242 97.519,167.097 98.538 C 180.188 100.045,176.984 112.056,163.226 113.052 C 149.963 114.011,148.496 118.710,161.460 118.710 C 177.992 118.710,189.909 101.457,176.841 96.443 C 173.488 95.156,173.488 94.530,176.841 91.178 C 186.949 81.070,173.576 69.646,156.774 74.037 M226.336 80.645 C 208.040 105.456,207.575 108.387,221.935 108.387 C 230.538 108.387,232.258 109.247,232.258 113.548 C 232.258 116.387,233.419 118.710,234.839 118.710 C 236.258 118.710,237.419 116.387,237.419 113.548 C 237.419 110.681,239.140 108.387,241.290 108.387 C 243.419 108.387,245.161 107.226,245.161 105.806 C 245.161 104.387,243.419 103.226,241.290 103.226 C 238.280 103.226,237.419 99.785,237.419 87.742 C 237.419 70.144,235.151 68.692,226.336 80.645 M255.484 83.559 C 255.484 94.676,255.821 95.190,263.611 95.966 C 280.719 97.668,278.921 113.548,261.619 113.548 C 256.826 113.548,252.903 114.710,252.903 116.129 C 252.903 120.319,272.774 119.115,277.235 114.654 C 287.500 104.390,277.545 87.654,262.581 90.017 C 261.516 90.185,260.645 88.074,260.645 85.325 C 260.645 81.573,262.735 80.125,269.032 79.518 C 281.131 78.352,279.351 73.688,266.452 72.755 L 255.484 71.961 255.484 83.559 M232.258 91.613 C 232.258 102.762,231.953 103.226,224.615 103.226 L 216.973 103.226 223.970 91.694 C 232.575 77.514,232.258 77.518,232.258 91.613 M196.129 90.323 C 196.129 93.161,197.290 95.484,198.710 95.484 C 200.129 95.484,201.290 93.161,201.290 90.323 C 201.290 87.484,200.129 85.161,198.710 85.161 C 197.290 85.161,196.129 87.484,196.129 90.323 M196.129 114.839 C 196.129 116.968,197.290 118.710,198.710 118.710 C 200.129 118.710,201.290 116.968,201.290 114.839 C 201.290 112.710,200.129 110.968,198.710 110.968 C 197.290 110.968,196.129 112.710,196.129 114.839 " stroke="none" fill="#000000" fill-rule="evenodd"></path></g></svg>