<?xml version="1.0" standalone="no"?>
<!DOCTYPE svg PUBLIC "-//W3C//DTD SVG 20010904//EN"
 "http://www.w3.org/TR/2001/REC-SVG-20010904/DTD/svg10.dtd">
<svg version="1.0" xmlns="http://www.w3.org/2000/svg"
 width="600.000000pt" height="600.000000pt" viewBox="0 0 600.000000 600.000000"
 preserveAspectRatio="xMidYMid meet">
<g transform="translate(0.000000,600.000000) scale(0.100000,-0.100000)"
fill="#000000" stroke="none">
<path d="M2158 5878 c-21 -5 -138 -48 -260 -94 -123 -47 -248 -91 -278 -100
-119 -33 -174 -76 -228 -177 l-27 -52 1 -630 c0 -346 6 -1064 13 -1595 7 -531
16 -1278 21 -1660 7 -553 12 -706 23 -746 37 -130 128 -244 243 -302 32 -16
115 -46 182 -67 109 -33 133 -37 200 -33 61 4 90 11 140 37 34 17 60 36 57 41
-3 5 0 12 6 16 8 4 9 3 5 -4 -9 -16 -3 -15 42 4 20 8 91 36 157 61 134 51 220
92 211 100 -3 3 12 26 34 50 22 25 48 69 60 99 20 54 20 80 28 2287 7 1813 6
2244 -5 2297 -19 93 -73 201 -135 266 -70 74 -118 99 -172 88 -67 -12 -134 -7
-273 21 -85 17 -146 24 -170 20 -38 -7 -38 -6 -12 8 27 15 132 50 181 61 15 3
85 -5 156 -19 280 -55 424 -129 489 -252 56 -106 56 -107 49 -953 -3 -426 -9
-1263 -12 -1860 -3 -597 -9 -1256 -13 -1465 l-7 -380 -33 -73 c-26 -55 -50
-88 -98 -132 -72 -68 -71 -82 1 -19 61 54 100 111 127 190 l23 64 8 1045 c20
2694 24 3387 16 3444 -30 216 -181 330 -531 402 -128 26 -161 28 -219 12z
m-88 -88 c-17 -4 21 -15 117 -33 164 -31 198 -33 268 -11 49 16 52 16 94 -6
60 -30 121 -97 163 -177 74 -140 69 75 60 -2433 -8 -2121 -9 -2258 -26 -2302
-20 -53 -89 -136 -140 -167 -39 -24 -310 -131 -345 -136 -12 -2 -33 -13 -45
-24 -43 -40 -116 -65 -191 -65 -81 0 -270 55 -368 107 -67 35 -147 118 -183
190 -47 92 -52 147 -58 697 -4 283 -13 1062 -21 1730 -8 668 -17 1445 -21
1725 -7 571 -7 573 62 668 44 61 94 93 175 113 65 16 71 15 230 -11 97 -16
186 -37 217 -51 102 -45 206 -178 246 -313 14 -49 16 -278 16 -2353 0 -2274 0
-2299 -20 -2338 -11 -21 -24 -41 -30 -45 -5 -3 -10 -11 -10 -17 0 -22 34 18
56 67 l24 50 0 2272 c0 1591 -3 2288 -11 2325 -18 88 -86 215 -150 279 -80 80
-136 104 -312 134 -82 14 -154 25 -160 26 -7 0 48 24 122 53 113 45 143 52
200 52 36 0 55 -3 41 -6z m73 -7 c-7 -2 -21 -2 -30 0 -10 3 -4 5 12 5 17 0 24
-2 18 -5z m50 -10 c-7 -2 -19 -2 -25 0 -7 3 -2 5 12 5 14 0 19 -2 13 -5z m50
-10 c-7 -2 -19 -2 -25 0 -7 3 -2 5 12 5 14 0 19 -2 13 -5z m50 -10 c-7 -2 -19
-2 -25 0 -7 3 -2 5 12 5 14 0 19 -2 13 -5z m70 -10 c-7 -2 -19 -2 -25 0 -7 3
-2 5 12 5 14 0 19 -2 13 -5z"/>
<path d="M2240 5296 c0 -2 8 -10 18 -17 15 -13 16 -12 3 4 -13 16 -21 21 -21
13z"/>
<path d="M1445 4600 c-4 -14 -2 -27 6 -36 8 -7 104 -34 214 -59 110 -25 232
-54 271 -64 76 -19 104 -14 104 18 0 10 -7 24 -15 31 -14 12 -452 117 -531
127 -37 5 -43 3 -49 -17z m315 -54 c238 -55 287 -73 263 -97 -13 -13 -540 105
-562 126 -19 19 -3 38 28 32 14 -2 136 -30 271 -61z"/>
<path d="M1470 4580 c0 -5 5 -10 10 -10 6 0 10 5 10 10 0 6 -4 10 -10 10 -5 0
-10 -4 -10 -10z"/>
<path d="M2029 4543 c-13 -16 -12 -17 4 -4 9 7 17 15 17 17 0 8 -8 3 -21 -13z"/>
<path d="M2061 4537 c-8 -10 -7 -14 2 -14 8 0 14 6 14 14 0 7 -1 13 -2 13 -2
0 -8 -6 -14 -13z"/>
<path d="M2056 4498 c3 -5 10 -6 15 -3 13 9 11 12 -6 12 -8 0 -12 -4 -9 -9z"/>
<path d="M1845 5820 c-3 -6 1 -7 9 -4 18 7 21 14 7 14 -6 0 -13 -4 -16 -10z"/>
<path d="M2695 5681 c-3 -5 -2 -12 3 -15 5 -3 9 1 9 9 0 17 -3 19 -12 6z"/>
<path d="M3910 5519 c-111 -21 -272 -132 -326 -225 -57 -97 -54 53 -54 -2428
-1 -2527 -5 -2355 61 -2457 75 -118 190 -187 424 -255 135 -39 213 -47 254
-25 13 7 35 14 49 16 125 16 260 127 285 235 7 32 15 486 27 1635 6 506 15
1285 21 1730 17 1353 17 1309 -8 1386 -28 81 -86 171 -145 226 -78 71 -144 97
-369 143 -155 32 -152 32 -219 19z m270 -44 c93 -21 180 -47 216 -65 116 -57
204 -173 240 -314 16 -64 16 -124 5 -915 -6 -465 -16 -1264 -22 -1776 -24
-2089 -22 -2025 -46 -2070 -32 -59 -90 -110 -165 -145 -37 -16 -71 -30 -75
-30 -4 0 7 15 25 33 64 66 61 31 72 879 14 1171 32 2966 33 3488 2 460 2 466
-21 524 -33 88 -64 135 -126 194 -73 69 -109 84 -295 123 -168 34 -240 35
-300 4 -60 -30 -22 4 45 41 134 75 192 79 414 29z m-125 -95 c169 -36 227 -67
297 -158 55 -72 86 -149 98 -246 5 -41 5 -413 0 -896 -6 -454 -17 -1488 -25
-2299 -15 -1381 -17 -1477 -34 -1515 -40 -91 -128 -143 -224 -133 -70 7 -276
70 -362 111 -137 64 -232 182 -255 316 -8 47 -10 713 -8 2345 l3 2280 33 67
c18 37 47 79 65 94 18 15 31 30 30 33 -1 4 6 7 15 8 9 1 40 9 67 17 63 20 119
15 300 -24z"/>
<path d="M3836 4392 c-3 -4 4 -9 15 -9 23 -2 25 3 4 10 -8 4 -16 3 -19 -1z"/>
<path d="M3646 4365 c-23 -23 -20 -52 7 -69 12 -8 150 -45 306 -82 294 -70
312 -71 319 -28 6 44 -16 52 -303 119 -154 36 -287 68 -296 71 -9 2 -24 -3
-33 -11z m275 -60 c129 -30 256 -61 283 -67 57 -15 79 -40 55 -63 -13 -14 -45
-8 -303 53 -166 40 -294 76 -303 85 -19 19 -10 47 15 47 11 0 125 -25 253 -55z"/>
<path d="M3623 4255 c0 -8 4 -12 9 -9 5 3 6 10 3 15 -9 13 -12 11 -12 -6z"/>
<path d="M4345 5500 c-3 -6 1 -7 9 -4 18 7 21 14 7 14 -6 0 -13 -4 -16 -10z"/>
<path d="M2866 733 c-6 -14 -5 -15 5 -6 7 7 10 15 7 18 -3 3 -9 -2 -12 -12z"/>
<path d="M2360 506 c0 -2 7 -7 16 -10 8 -3 12 -2 9 4 -6 10 -25 14 -25 6z"/>
<path d="M3526 418 c3 -5 10 -6 15 -3 13 9 11 12 -6 12 -8 0 -12 -4 -9 -9z"/>
<path d="M3606 263 c-6 -14 -5 -15 5 -6 7 7 10 15 7 18 -3 3 -9 -2 -12 -12z"/>
<path d="M4583 255 c0 -8 4 -12 9 -9 5 3 6 10 3 15 -9 13 -12 11 -12 -6z"/>
<path d="M4505 191 c-3 -5 -2 -12 3 -15 5 -3 9 1 9 9 0 17 -3 19 -12 6z"/>
</g>
</svg>
