<?xml version="1.0" standalone="no"?>
<!DOCTYPE svg PUBLIC "-//W3C//DTD SVG 20010904//EN"
 "http://www.w3.org/TR/2001/REC-SVG-20010904/DTD/svg10.dtd">
<svg version="1.0" xmlns="http://www.w3.org/2000/svg"
 width="600.000000pt" height="600.000000pt" viewBox="0 0 600.000000 600.000000"
 preserveAspectRatio="xMidYMid meet">
<g transform="translate(0.000000,600.000000) scale(0.100000,-0.100000)"
fill="#000000" stroke="none">
<path d="M1447 5819 c7 -7 15 -10 18 -7 3 3 -2 9 -12 12 -14 6 -15 5 -6 -5z"/>
<path d="M1561 5785 c-107 -28 -237 -88 -307 -142 -27 -21 -92 -58 -144 -84
-320 -156 -539 -450 -611 -822 -24 -122 -24 -229 -4 -897 9 -278 24 -791 35
-1140 21 -686 23 -714 86 -903 150 -454 531 -841 956 -971 50 -16 572 -108
1318 -233 l1235 -207 180 0 c155 0 191 3 261 22 98 26 234 82 290 120 206 136
284 193 352 260 138 136 220 286 264 487 19 85 21 144 30 1095 11 1305 7 1808
-16 1910 -32 138 -67 234 -132 365 -225 456 -647 786 -1122 875 -154 28 -498
73 -1217 156 -121 13 -426 49 -677 79 -531 64 -630 68 -777 30z m314 -14 c50
-5 304 -34 565 -65 261 -31 630 -74 820 -97 535 -62 876 -107 984 -130 239
-50 441 -148 650 -315 234 -188 418 -454 510 -736 64 -198 61 -112 59 -1608
-1 -1505 0 -1462 -64 -1655 -55 -165 -150 -302 -287 -417 -106 -89 -112 -91
-60 -17 62 87 113 191 144 296 25 81 27 106 32 313 6 304 -17 2301 -29 2470
-5 74 -18 177 -29 228 -137 649 -647 1128 -1340 1262 -105 20 -595 83 -1090
140 -146 17 -377 44 -515 60 -585 69 -618 72 -720 67 -213 -12 -425 -97 -594
-237 -179 -150 -325 -416 -345 -630 l-6 -55 15 65 c70 302 223 531 455 682
135 87 294 141 452 153 91 8 115 5 853 -80 1412 -165 1541 -183 1750 -256 561
-193 947 -623 1065 -1187 14 -66 23 -166 30 -312 12 -293 34 -2364 26 -2468
-23 -275 -158 -535 -345 -661 -93 -63 -267 -142 -310 -140 -9 0 11 10 44 22
257 96 463 354 526 661 16 79 37 389 25 361 -3 -5 -10 -73 -15 -150 -12 -152
-34 -253 -81 -373 -133 -332 -432 -542 -775 -542 -109 0 -78 -5 -1460 226
-1234 205 -1260 211 -1417 290 -139 70 -239 144 -369 273 -143 144 -227 263
-313 441 -112 235 -131 353 -146 905 -18 693 -49 1765 -54 1889 -21 571 314
1035 843 1168 47 12 81 23 75 25 -11 4 -123 -19 -159 -32 -44 -15 31 35 110
74 94 46 196 79 286 90 88 12 101 12 204 2z"/>
<path d="M1105 5391 c-3 -5 -2 -12 3 -15 5 -3 9 1 9 9 0 17 -3 19 -12 6z"/>
<path d="M936 5292 c-3 -5 1 -9 9 -9 8 0 12 4 9 9 -3 4 -7 8 -9 8 -2 0 -6 -4
-9 -8z"/>
<path d="M4815 5169 c-4 -6 -4 -13 -1 -16 3 -3 0 -13 -7 -22 -10 -14 -10 -14
5 -3 9 8 21 11 26 8 5 -3 9 1 9 8 0 9 -7 12 -15 8 -11 -4 -14 -1 -9 11 7 19 2
23 -8 6z"/>
<path d="M779 5103 c-13 -16 -12 -17 4 -4 9 7 17 15 17 17 0 8 -8 3 -21 -13z"/>
<path d="M4610 5030 c-9 -6 -10 -10 -3 -10 6 0 15 5 18 10 8 12 4 12 -15 0z"/>
<path d="M4403 4995 c0 -8 4 -12 9 -9 5 3 6 10 3 15 -9 13 -12 11 -12 -6z"/>
<path d="M4677 4949 c7 -7 15 -10 18 -7 3 3 -2 9 -12 12 -14 6 -15 5 -6 -5z"/>
<path d="M675 4920 c-3 -6 1 -7 9 -4 18 7 21 14 7 14 -6 0 -13 -4 -16 -10z"/>
<path d="M4566 4893 c-6 -14 -5 -15 5 -6 7 7 10 15 7 18 -3 3 -9 -2 -12 -12z"/>
<path d="M4830 4796 c0 -2 8 -10 18 -17 15 -13 16 -12 3 4 -13 16 -21 21 -21
13z"/>
<path d="M4726 4742 c-3 -5 1 -9 9 -9 8 0 12 4 9 9 -3 4 -7 8 -9 8 -2 0 -6 -4
-9 -8z"/>
<path d="M4895 4710 c-3 -6 1 -7 9 -4 18 7 21 14 7 14 -6 0 -13 -4 -16 -10z"/>
<path d="M626 4695 c-9 -26 -7 -32 5 -12 6 10 9 21 6 23 -2 3 -7 -2 -11 -11z"/>
<path d="M2390 4703 c-202 -22 -412 -99 -600 -220 -104 -68 -276 -239 -345
-342 -115 -176 -207 -408 -246 -627 -29 -159 -32 -488 -6 -639 110 -632 470
-1136 1003 -1403 189 -95 384 -150 601 -172 253 -25 566 42 801 172 207 114
408 313 537 533 340 578 247 1388 -230 2000 -84 108 -281 296 -393 375 -310
219 -647 333 -973 328 -63 0 -130 -3 -149 -5z m291 -23 c601 -61 1153 -470
1440 -1068 254 -531 254 -1141 -2 -1587 -203 -354 -526 -592 -922 -680 -98
-22 -372 -31 -479 -16 -694 100 -1271 632 -1459 1346 -157 599 -23 1240 341
1619 206 214 494 352 806 385 115 12 160 12 275 1z"/>
<path d="M2345 4624 c-483 -86 -843 -415 -1009 -925 -58 -179 -71 -275 -71
-524 0 -170 4 -241 18 -310 94 -479 381 -912 769 -1159 159 -101 385 -188 573
-222 133 -23 347 -23 480 1 475 83 869 422 1034 888 108 308 107 689 -5 1022
-193 575 -653 1031 -1199 1190 -186 54 -419 69 -590 39z m458 -44 c324 -63
621 -230 872 -491 448 -466 619 -1116 439 -1673 -147 -459 -542 -810 -1010
-898 -105 -20 -388 -17 -499 5 -300 61 -564 200 -787 415 -265 256 -440 590
-504 962 -23 138 -24 413 0 555 71 428 307 799 626 985 135 79 317 141 469
160 97 13 271 4 394 -20z"/>
<path d="M3140 4420 c-8 -5 -10 -10 -5 -10 6 0 17 5 25 10 8 5 11 10 5 10 -5
0 -17 -5 -25 -10z"/>
<path d="M1816 4273 c-6 -14 -5 -15 5 -6 7 7 10 15 7 18 -3 3 -9 -2 -12 -12z"/>
<path d="M3395 4269 c-4 -6 -14 -8 -24 -4 -12 5 -13 3 -4 -6 9 -9 17 -8 34 5
13 9 18 16 12 16 -7 0 -15 -5 -18 -11z"/>
<path d="M1605 4101 c-3 -5 -2 -12 3 -15 5 -3 9 1 9 9 0 17 -3 19 -12 6z"/>
<path d="M3605 4101 c-3 -5 0 -13 6 -17 7 -4 9 -3 5 4 -3 5 0 13 6 15 9 4 10
6 1 6 -6 1 -14 -3 -18 -8z"/>
<path d="M3799 3853 c-13 -16 -12 -17 4 -4 16 13 21 21 13 21 -2 0 -10 -8 -17
-17z"/>
<path d="M3933 2143 c0 -9 4 -10 14 -2 7 6 13 12 13 14 0 1 -6 2 -13 2 -8 0
-14 -6 -14 -14z"/>
<path d="M3845 2040 c-3 -6 1 -7 9 -4 18 7 21 14 7 14 -6 0 -13 -4 -16 -10z"/>
<path d="M3780 1971 c0 -6 4 -13 10 -16 6 -3 7 1 4 9 -7 18 -14 21 -14 7z"/>
<path d="M1903 1905 c0 -8 4 -12 9 -9 5 3 6 10 3 15 -9 13 -12 11 -12 -6z"/>
<path d="M3685 1909 c-4 -6 -5 -12 -2 -15 2 -3 7 2 10 11 7 17 1 20 -8 4z"/>
<path d="M3381 1647 c-13 -21 -12 -21 5 -5 10 10 16 20 13 22 -3 3 -11 -5 -18
-17z"/>
<path d="M2385 1629 c-4 -6 -5 -12 -2 -15 2 -3 7 2 10 11 7 17 1 20 -8 4z"/>
<path d="M4140 2263 c0 -6 8 -17 18 -24 16 -13 16 -13 2 6 -8 11 -16 22 -17
24 -2 2 -3 0 -3 -6z"/>
<path d="M1663 1965 c0 -8 4 -12 9 -9 5 3 6 10 3 15 -9 13 -12 11 -12 -6z"/>
<path d="M4002 1951 c-11 -6 -10 -10 0 -19 11 -8 14 -7 14 9 0 10 0 19 -1 19
0 0 -6 -4 -13 -9z"/>
<path d="M3943 1935 c0 -8 4 -12 9 -9 5 3 6 10 3 15 -9 13 -12 11 -12 -6z"/>
<path d="M1790 1843 c0 -6 8 -17 18 -24 16 -13 16 -13 2 6 -8 11 -16 22 -17
24 -2 2 -3 0 -3 -6z"/>
<path d="M1866 1762 c-3 -5 1 -9 9 -9 8 0 12 4 9 9 -3 4 -7 8 -9 8 -2 0 -6 -4
-9 -8z"/>
<path d="M2083 1633 c4 -3 1 -13 -6 -22 -11 -14 -10 -14 5 -2 16 12 16 31 1
31 -4 0 -3 -3 0 -7z"/>
<path d="M2105 1610 c-3 -5 -2 -17 3 -26 8 -15 10 -15 15 0 5 12 3 15 -5 10
-8 -5 -9 -2 -5 9 7 19 2 23 -8 7z"/>
<path d="M3626 1581 c-3 -4 4 -7 14 -6 27 2 33 10 10 12 -11 1 -22 -2 -24 -6z"/>
<path d="M3460 1556 c0 -2 9 -6 20 -9 11 -3 18 -1 14 4 -5 9 -34 13 -34 5z"/>
<path d="M3420 1530 c-9 -6 -10 -10 -3 -10 6 0 15 5 18 10 8 12 4 12 -15 0z"/>
<path d="M2250 1506 c0 -2 7 -7 16 -10 8 -3 12 -2 9 4 -6 10 -25 14 -25 6z"/>
<path d="M3475 4469 c-4 -6 -4 -13 -1 -16 3 -4 6 -1 6 5 0 7 5 12 11 12 5 0 7
-5 3 -12 -4 -7 -3 -8 5 -4 12 8 6 26 -9 26 -5 0 -12 -5 -15 -11z"/>
<path d="M5080 4407 c0 -2 6 -10 14 -16 11 -9 16 -9 22 1 4 7 4 10 -1 6 -4 -4
-14 -3 -22 3 -7 6 -13 9 -13 6z"/>
<path d="M1526 4318 c3 -5 10 -6 15 -3 13 9 11 12 -6 12 -8 0 -12 -4 -9 -9z"/>
<path d="M3810 4175 c0 -5 5 -17 10 -25 5 -8 10 -10 10 -5 0 6 -5 17 -10 25
-5 8 -10 11 -10 5z"/>
<path d="M1296 3987 c3 -10 9 -15 12 -12 3 3 0 11 -7 18 -10 9 -11 8 -5 -6z"/>
<path d="M1620 1871 c0 -6 4 -13 10 -16 6 -3 7 1 4 9 -7 18 -14 21 -14 7z"/>
<path d="M4056 1772 c-3 -5 1 -9 9 -9 8 0 12 4 9 9 -3 4 -7 8 -9 8 -2 0 -6 -4
-9 -8z"/>
<path d="M761 1658 c5 -10 11 -18 12 -18 2 0 3 8 3 18 0 10 -6 19 -13 19 -8 0
-9 -6 -2 -19z"/>
<path d="M3894 1633 c2 -9 8 -18 15 -19 6 -1 7 0 1 3 -5 2 -8 9 -5 13 3 5 1
11 -4 14 -5 4 -8 -2 -7 -11z"/>
<path d="M1870 1626 c0 -2 7 -7 16 -10 8 -3 12 -2 9 4 -6 10 -25 14 -25 6z"/>
<path d="M3799 1563 c-13 -16 -12 -17 2 -5 14 10 18 10 22 -2 3 -7 0 -20 -6
-27 -10 -11 -9 -11 5 0 14 10 15 18 7 32 -12 23 -13 23 -30 2z"/>
<path d="M910 1401 c0 -6 4 -13 10 -16 6 -3 7 1 4 9 -7 18 -14 21 -14 7z"/>
<path d="M4963 875 c0 -8 4 -12 9 -9 5 3 6 10 3 15 -9 13 -12 11 -12 -6z"/>
<path d="M4880 776 c0 -2 8 -10 18 -17 15 -13 16 -12 3 4 -13 16 -21 21 -21
13z"/>
<path d="M891 5488 c-14 -23 -14 -23 8 -4 22 20 25 26 13 26 -4 0 -13 -10 -21
-22z"/>
<path d="M4912 5263 c-16 -12 -16 -13 2 -6 15 5 17 3 11 -8 -7 -11 -6 -12 7
-2 8 7 17 11 20 8 2 -3 5 1 5 8 0 17 -23 17 -45 0z"/>
<path d="M5156 5028 c3 -5 10 -6 15 -3 13 9 11 12 -6 12 -8 0 -12 -4 -9 -9z"/>
<path d="M5323 4783 c0 -9 4 -10 14 -2 7 6 13 12 13 14 0 1 -6 2 -13 2 -8 0
-14 -6 -14 -14z"/>
<path d="M656 1563 c-6 -14 -5 -15 5 -6 7 7 10 15 7 18 -3 3 -9 -2 -12 -12z"/>
<path d="M980 1141 c0 -6 4 -13 10 -16 6 -3 7 1 4 9 -7 18 -14 21 -14 7z"/>
<path d="M4929 507 c6 -8 7 -18 3 -22 -4 -5 -1 -5 6 -1 10 6 10 11 1 22 -6 8
-14 14 -16 14 -3 0 0 -6 6 -13z"/>
<path d="M4885 500 c-4 -6 1 -7 11 -3 13 5 15 3 9 -7 -5 -9 -4 -11 4 -6 6 4 9
12 6 17 -8 12 -22 12 -30 -1z"/>
</g>
</svg>
